<?xml version="1.0" encoding="UTF-8"?>
<svg width="32px" height="27px" viewBox="0 0 32 27" version="1.1" xmlns="http://www.w3.org/2000/svg" xmlns:xlink="http://www.w3.org/1999/xlink">
    <title>Group 5</title>
    <g id="Page-1" stroke="none" stroke-width="1" fill="none" fill-rule="evenodd">
        <g id="Extra-Large" transform="translate(-1136.000000, -8308.000000)" fill="#43B97F" fill-rule="nonzero">
            <g id="Testimonials-Section" transform="translate(320.000000, 8106.000000)">
                <g id="Group-5" transform="translate(816.000000, 202.000000)">
                    <g id="‚" transform="translate(16.000000, 0.000000)">
                        <path d="M0,0 L13.2096208,0 C15.9577215,6.26896552 16.6759751,12.1655172 15.3643816,17.6896552 C14.6773564,20.4206897 13.1940065,22.6551724 10.914332,24.3931034 C8.63465754,26.1310345 5.65234363,27 1.96739033,27 L1.96739033,20.9482759 C3.65372489,20.9482759 4.8872474,20.5758621 5.66795784,19.8310345 C6.44866829,19.0862069 6.83902351,17.7206897 6.83902351,15.7344828 L6.83902351,14.2448276 L0,14.2448276 L0,0 Z" id="Path"></path>
                    </g>
                    <g id="‚" opacity="0.560000002" transform="translate(0.000000, 7.000000)">
                        <path d="M0,0 L9.90721557,0 C11.9682911,4.64367816 12.5069814,9.01149425 11.5232862,13.1034483 C11.0080173,15.1264368 9.89550491,16.7816092 8.18574903,18.0689655 C6.47599315,19.3563218 4.23925772,20 1.47554274,20 L1.47554274,15.5172414 C2.74029367,15.5172414 3.66543555,15.2413793 4.25096838,14.6896552 C4.83650122,14.137931 5.12926763,13.1264368 5.12926763,11.6551724 L5.12926763,10.5517241 L0,10.5517241 L0,0 Z" id="Path"></path>
                    </g>
                </g>
            </g>
        </g>
    </g>
</svg>